HIERARCHY
ROOT Hips
{
	OFFSET 0.000000 0.000000 0.000000
	CHANNELS 6 Xposition Yposition Zposition Zrotation Yrotation Xrotation 
	JOINT LHipJoint
	{
		OFFSET 0.000000 0.000000 0.000000
		CHANNELS 3 Zrotation Yrotation Xrotation
		JOINT LeftUpLeg
		{
			OFFSET 1.363060 -1.794630 0.839290
			CHANNELS 3 Zrotation Yrotation Xrotation
			JOINT LeftLeg
			{
				OFFSET 2.448110 -6.726130 0.000000
				CHANNELS 3 Zrotation Yrotation Xrotation
				JOINT LeftFoot
				{
					OFFSET 2.562200 -7.039590 0.000000
					CHANNELS 3 Zrotation Yrotation Xrotation
					JOINT LeftToeBase
					{
						OFFSET 0.157640 -0.433110 2.322550
						CHANNELS 3 Zrotation Yrotation Xrotation
						End Site
						{
							OFFSET 0.000000 0.000000 0.000000
						}
					}
				}
			}
		}
	}
	JOINT RHipJoint
	{
		OFFSET 0.000000 0.000000 0.000000
		CHANNELS 3 Zrotation Yrotation Xrotation
		JOINT RightUpLeg
		{
			OFFSET -1.305520 -1.794630 0.839290
			CHANNELS 3 Zrotation Yrotation Xrotation
			JOINT RightLeg
			{
				OFFSET -2.542530 -6.985550 0.000000
				CHANNELS 3 Zrotation Yrotation Xrotation
				JOINT RightFoot
				{
					OFFSET -2.568260 -7.056230 0.000000
					CHANNELS 3 Zrotation Yrotation Xrotation
					JOINT RightToeBase
					{
						OFFSET -0.164730 -0.452590 2.363150
						CHANNELS 3 Zrotation Yrotation Xrotation
						End Site
						{
							OFFSET 0.000000 0.000000 0.000000
						}
					}
				}
			}
		}
	}
	JOINT LowerBack
	{
		OFFSET 0.000000 0.000000 0.000000
		CHANNELS 3 Zrotation Yrotation Xrotation
		JOINT Spine
		{
			OFFSET 0.028270 2.035590 -0.193380
			CHANNELS 3 Zrotation Yrotation Xrotation
			JOINT Spine1
			{
				OFFSET 0.056720 2.048850 -0.042750
				CHANNELS 3 Zrotation Yrotation Xrotation
				JOINT Neck
				{
					OFFSET 0.000000 0.000000 0.000000
					CHANNELS 3 Zrotation Yrotation Xrotation
					JOINT Neck1
					{
						OFFSET -0.054170 1.746240 0.172020
						CHANNELS 3 Zrotation Yrotation Xrotation
						JOINT Head
						{
							OFFSET 0.104070 1.761360 -0.123970
							CHANNELS 3 Zrotation Yrotation Xrotation
							End Site
							{
								OFFSET 0.000000 0.000000 0.000000
							}
						}
					}
				}
				JOINT LeftShoulder
				{
					OFFSET 0.000000 0.000000 0.000000
					CHANNELS 3 Zrotation Yrotation Xrotation
					JOINT LeftArm
					{
						OFFSET 3.362410 1.200890 -0.311210
						CHANNELS 3 Zrotation Yrotation Xrotation
						JOINT LeftForeArm
						{
							OFFSET 4.983000 -0.000000 -0.000000
							CHANNELS 3 Zrotation Yrotation Xrotation
							JOINT LeftHand
							{
								OFFSET 3.483560 -0.000000 -0.000000
								CHANNELS 3 Zrotation Yrotation Xrotation
								JOINT LeftFingerBase
								{
									OFFSET 0.000000 0.000000 0.000000
									CHANNELS 3 Zrotation Yrotation Xrotation
									JOINT LeftHandIndex1
									{
										OFFSET 0.715260 -0.000000 -0.000000
										CHANNELS 3 Zrotation Yrotation Xrotation
										End Site
										{
											OFFSET 0.000000 0.000000 0.000000
										}
									}
								}
								JOINT LThumb
								{
									OFFSET 0.000000 0.000000 0.000000
									CHANNELS 3 Zrotation Yrotation Xrotation
									End Site
									{
										OFFSET 0.000000 0.000000 0.000000
									}
								}
							}
						}
					}
				}
				JOINT RightShoulder
				{
					OFFSET 0.000000 0.000000 0.000000
					CHANNELS 3 Zrotation Yrotation Xrotation
					JOINT RightArm
					{
						OFFSET -3.136600 1.374050 -0.404650
						CHANNELS 3 Zrotation Yrotation Xrotation
						JOINT RightForeArm
						{
							OFFSET -5.241900 -0.000000 -0.000000
							CHANNELS 3 Zrotation Yrotation Xrotation
							JOINT RightHand
							{
								OFFSET -3.444170 -0.000000 -0.000000
								CHANNELS 3 Zrotation Yrotation Xrotation
								JOINT RightFingerBase
								{
									OFFSET 0.000000 0.000000 0.000000
									CHANNELS 3 Zrotation Yrotation Xrotation
									JOINT RightHandIndex1
									{
										OFFSET -0.622530 -0.000000 -0.000000
										CHANNELS 3 Zrotation Yrotation Xrotation
										End Site
										{
											OFFSET 0.000000 0.000000 0.000000
										}
									}
								}
								JOINT RThumb
								{
									OFFSET 0.000000 0.000000 0.000000
									CHANNELS 3 Zrotation Yrotation Xrotation
									End Site
									{
										OFFSET 0.000000 0.000000 0.000000
									}
								}
							}
						}
					}
				}
			}
		}
	}
}
MOTION
Frames: 9
Frame Time: 0.008333
35.128969 17.696163 -1.133634 132.542752 -88.571086 -113.060677 -5.016181 1.107237 1.804388 -18.786619 -11.901060 -2.058258 -0.446672 7.370160 21.589888 0.077336 2.420859 0.618254 0.011600 -0.694800 -1.909500 4.025704 3.141459 -4.535241 6.623132 20.748637 -37.775167 0.361948 -5.244984 13.703286 0.547316 -5.690496 6.008770 -0.182300 2.750100 -7.583800 -4.491243 -0.709260 -7.541249 2.567059 -0.636133 -10.034802 1.363415 -0.298318 1.041828 -6.176548 3.369180 -0.052929 12.518533 2.669456 -9.567251 2.230400 0.236500 -4.075800 -7.449674 -8.487530 2.291149 -86.127168 -15.753043 16.914031 18.736110 -21.528975 -3.295038 0.006947 0.465875 25.790098 10.258182 20.947915 3.698700 -7.125000 0.000000 0.000000 -17.837900 49.940500 -2.235400 6.311899 5.576256 1.155718 86.443306 -4.011890 3.318353 -14.044389 18.413674 -2.017159 -0.606478 -0.280483 20.833893 -13.156303 8.743734 -2.073400 7.125000 0.000000 0.000000 10.194600 -20.566900 6.058700 
34.907097 17.711829 -1.146873 126.918183 -88.582029 -107.157143 -5.045755 1.202251 1.878504 -18.679912 -11.738880 -1.896446 -0.442725 7.377295 21.595409 0.341589 1.592386 2.014705 0.007700 -0.565600 -1.554300 3.876353 3.225294 -4.630278 6.910442 20.519359 -38.229106 0.210984 -5.758985 15.154209 0.636659 -6.174359 5.992440 -0.252300 3.232200 -8.925900 -4.501617 -0.729344 -7.514409 2.561901 -0.681605 -10.647893 1.307323 -0.300204 0.592658 -6.112339 3.234839 -0.015585 12.504322 2.476930 -8.953531 2.210700 0.183500 -3.944400 -7.463045 -8.439290 2.257839 -86.364229 -14.491002 16.370145 18.551396 -21.282128 -3.213397 0.042882 0.466395 26.953273 10.562593 20.122082 3.651700 -7.125000 0.000000 0.000000 -17.220000 49.178800 -1.823500 6.304790 5.636884 1.190271 86.657289 -4.700050 2.251239 -13.828070 18.114053 -1.953014 -0.600942 -0.286025 21.666631 -13.156114 8.312364 -1.981800 7.125000 0.000000 0.000000 10.202900 -20.992000 5.964300 
34.683018 17.735991 -1.163092 119.483763 -88.662489 -99.375052 -5.124715 1.284630 1.960968 -18.379330 -11.651059 -1.909720 -0.428819 7.424338 21.709553 0.565217 0.901087 3.643883 0.014000 -0.763000 -2.097000 3.689253 3.289377 -4.703932 7.138962 20.452482 -38.674093 0.074938 -6.152854 16.293150 0.715484 -6.664523 6.200190 -0.291200 3.470400 -9.591300 -4.400706 -0.828087 -8.323476 2.559556 -0.794580 -10.721589 1.148430 -0.365220 1.023879 -6.002965 3.111077 -0.077161 12.246391 2.313734 -8.447997 2.368200 0.168600 -4.236000 -7.465753 -8.412423 2.234099 -86.466393 -13.999084 15.312620 18.159031 -20.770785 -3.057675 0.015947 0.465101 28.409279 9.358254 20.197567 3.261700 -7.125000 0.000000 0.000000 -18.348900 49.098200 -1.913000 6.290537 5.704237 1.206161 86.910034 -4.616941 1.044105 -13.539247 17.733935 -1.876631 -0.604374 -0.289538 22.692690 -13.366979 8.027409 -1.955300 7.125000 0.000000 0.000000 10.059000 -21.257100 5.816200 
34.456622 17.765560 -1.179421 114.962693 -88.897231 -94.516615 -5.149940 1.290938 1.986311 -17.911905 -11.333889 -2.126513 -0.367974 7.555044 22.120243 0.851516 0.014203 5.393886 0.021900 -0.954400 -2.623200 3.563793 3.305697 -4.764079 7.673242 20.264504 -38.889680 -0.020115 -6.414060 17.078365 0.723001 -6.734055 6.369860 -0.327500 3.678200 -10.173100 -4.145983 -0.835910 -8.464748 2.626027 -0.833723 -11.325261 0.964826 -0.380669 0.686837 -5.944634 3.041321 0.163253 12.240330 2.196872 -8.045148 2.350200 0.135400 -4.174100 -7.476466 -8.395271 2.198299 -86.698760 -12.782520 14.236598 17.724025 -20.204217 -2.896302 -0.007925 0.468278 29.609750 8.434246 20.301233 2.969700 -7.125000 0.000000 0.000000 -19.227200 49.079700 -2.001700 6.275432 5.752917 1.230936 87.179941 -5.189666 -0.506414 -13.266370 17.367974 -1.803266 -0.609190 -0.282350 23.764413 -13.348549 7.910463 -1.927000 7.125000 0.000000 0.000000 10.075900 -21.372400 5.799500 
34.221952 17.789943 -1.201376 112.376022 -89.092417 -91.714988 -5.127412 1.257379 2.016383 -17.484421 -10.672920 -2.531671 -0.253833 7.768747 22.843358 1.227881 -1.215537 7.018595 0.024300 -1.006900 -2.767900 3.511152 3.281079 -4.763427 8.213250 20.167435 -38.785383 -0.089837 -6.590343 17.631836 0.730891 -6.820442 6.615312 -0.358000 3.843800 -10.637800 -4.192033 -0.925277 -9.331133 2.877591 -0.876370 -11.227473 1.053363 -0.405360 1.248497 -6.228763 3.121547 -0.059875 12.444206 2.284614 -7.968169 2.435600 0.181300 -4.106200 -7.474972 -8.423445 2.168328 -86.986848 -12.362878 13.156429 17.290399 -19.635165 -2.735174 0.044383 0.489348 30.690100 9.653845 19.350236 3.222600 -7.125000 0.000000 0.000000 -17.710100 48.304800 -1.487200 6.272482 5.751727 1.220632 87.101122 -4.886087 -2.480957 -12.804541 16.794041 -1.688193 -0.624870 -0.239476 25.276143 -13.086359 8.439031 -1.996000 7.125000 0.000000 0.000000 10.254400 -20.871900 6.023700 
33.992687 17.807816 -1.219139 106.510782 -89.233820 -85.643294 -5.168028 1.192312 2.029092 -17.055068 -9.878919 -3.074482 -0.114450 8.041009 23.738065 1.565075 -2.342688 8.821602 0.029700 -1.112100 -3.057300 3.381974 3.251370 -4.778559 8.904942 19.828644 -38.662210 -0.153920 -6.741422 18.150002 0.662629 -6.472303 6.922622 -0.385100 3.985200 -11.034900 -4.012385 -0.982355 -9.661706 2.960248 -0.936216 -11.429285 0.878909 -0.436712 1.242244 -6.311094 3.123654 -0.634244 12.551292 2.297322 -7.280659 2.436000 0.232200 -3.826400 -7.464773 -8.383360 2.141365 -87.102920 -11.456450 12.239550 16.903675 -19.128659 -2.604117 0.172483 0.521353 31.582227 12.730433 17.474975 3.800300 -7.125000 0.000000 0.000000 -14.237300 46.796500 -0.643900 6.270772 5.780091 1.231633 87.295981 -5.028257 -4.160209 -12.371241 16.266616 -1.594705 -0.654795 -0.194679 26.554794 -13.138561 9.277115 -2.180900 7.125000 0.000000 0.000000 10.208500 -20.041300 6.189800 
33.763202 17.831426 -1.236681 95.844370 -89.349788 -74.776747 -5.288086 1.067616 2.018626 -16.502633 -9.110302 -3.750025 0.036311 8.339225 24.734853 1.880571 -3.391736 11.045320 0.014600 -0.779400 -2.142100 3.178381 3.166947 -4.779069 9.726629 19.426626 -38.461591 -0.214076 -6.882354 18.663576 0.573726 -5.862519 6.823119 -0.383900 3.978900 -11.017400 -3.874194 -1.071336 -10.082531 3.092978 -0.990484 -11.618639 0.731924 -0.473932 1.313026 -6.299120 2.943144 -1.064387 12.471713 2.074192 -6.392405 2.388000 0.190600 -3.518600 -7.467785 -8.331638 2.108166 -87.293431 -10.449428 11.180669 16.484015 -18.579713 -2.475577 0.203350 0.549456 32.379935 13.687192 17.307297 4.042900 -7.125000 0.000000 0.000000 -13.293900 46.713700 -0.572100 6.259457 5.833588 1.256511 87.471384 -5.147037 -5.670952 -11.984690 15.776163 -1.511186 -0.671530 -0.175609 27.645639 -13.328430 9.519370 -2.266800 7.125000 0.000000 0.000000 10.075300 -19.786800 6.164900 
33.534159 17.862650 -1.252790 85.158589 -89.391169 -64.025293 -5.370363 0.885702 1.969588 -16.040010 -8.204567 -4.441292 0.200075 8.633606 25.804405 2.205187 -4.494193 13.704842 0.001200 0.223200 0.613200 3.018107 3.029464 -4.751367 10.474936 19.022588 -38.057686 -0.267512 -7.029447 19.163026 0.512306 -5.324767 6.386786 -0.343200 3.764500 -10.415000 -3.916810 -1.116640 -10.084717 3.275102 -0.969777 -12.061725 0.749892 -0.466136 1.004958 -6.520741 3.003948 -0.794266 12.667290 2.094680 -6.065278 2.463500 0.216100 -3.492000 -7.479904 -8.349877 2.062061 -87.724577 -9.027888 9.969648 16.035089 -18.000073 -2.346420 -0.006511 0.554587 33.248699 8.982288 20.739291 3.242500 -7.125000 0.000000 0.000000 -18.815700 49.526500 -2.168800 6.248721 5.842010 1.269130 87.554506 -5.514617 -7.657086 -11.595906 15.255414 -1.423110 -0.679661 -0.166721 28.856066 -13.444238 9.402587 -2.263000 7.125000 0.000000 0.000000 9.998400 -19.891300 6.092600 
33.310631 17.894093 -1.267243 100.742290 -89.752625 -79.600982 -5.012672 0.902209 1.926471 -15.836599 -7.090412 -5.202236 0.366894 8.931673 26.886591 2.480163 -5.402490 16.593190 0.031900 1.153800 3.172200 3.294375 3.117164 -4.691611 11.024578 18.587453 -37.672968 -0.324760 -7.189498 19.689802 0.423691 -4.599040 5.805605 -0.346300 3.781300 -10.462200 -3.507190 -0.969590 -10.482457 3.281223 -0.906905 -12.059858 0.595115 -0.436284 1.199363 -6.575034 3.096568 -0.700410 12.713273 2.200338 -6.134207 2.478400 0.261500 -3.522800 -7.479341 -8.372932 2.026586 -87.851076 -8.258708 8.474705 15.481480 -17.279006 -2.187528 -0.006833 0.591197 34.548707 9.209346 21.079873 3.383700 -7.125000 0.000000 0.000000 -18.713200 49.864300 -2.315900 6.233115 5.846221 1.252037 87.719459 -5.278425 -10.029522 -11.124976 14.648723 -1.324055 -0.689659 -0.149472 30.448045 -13.605917 9.371082 -2.285400 7.125000 0.000000 0.000000 9.887700 -19.910300 6.018800 
